<?xml version="1.0" encoding="UTF-8"?>
<!DOCTYPE svg  PUBLIC '-//W3C//DTD SVG 1.1//EN'  'http://www.w3.org/Graphics/SVG/1.1/DTD/svg11.dtd'>
<svg enable-background="new 0 0 97 97" version="1.1" viewBox="0 0 97 97" xml:space="preserve" xmlns="http://www.w3.org/2000/svg">

	<path d="m92.71 44.408-40.119-40.117c-2.31-2.311-6.057-2.311-8.369 0l-8.33 8.332 10.567 10.567c2.456-0.83 5.272-0.273 7.229 1.685 1.969 1.97 2.521 4.81 1.67 7.275l10.186 10.185c2.465-0.85 5.307-0.3 7.275 1.671 2.75 2.75 2.75 7.206 0 9.958-2.752 2.751-7.208 2.751-9.961 0-2.068-2.07-2.58-5.11-1.531-7.658l-9.5-9.499v24.997c0.67 0.332 1.303 0.774 1.861 1.332 2.75 2.75 2.75 7.206 0 9.959-2.75 2.749-7.209 2.749-9.957 0-2.75-2.754-2.75-7.21 0-9.959 0.68-0.679 1.467-1.193 2.307-1.537v-25.23c-0.84-0.344-1.625-0.853-2.307-1.537-2.083-2.082-2.584-5.14-1.516-7.698l-10.417-10.419-27.51 27.507c-2.311 2.313-2.311 6.06 0 8.371l40.121 40.118c2.31 2.311 6.056 2.311 8.369 0l39.932-39.932c2.311-2.311 2.311-6.06 0-8.371z" fill="red"/>

</svg>
